# xmcd
#
# Track frame offsets:
#	150
#	14805
#	27929
#	43377
#	58155
#	74210
#	107812
#	120825
#	137891
#	156784
#	174225
#
# Disc length: 2343 seconds
#
# Revision: 1
# Processed by: cddbd v1.5.1PL2 Copyright (c) Steve Scherf et al.
# Submitted via: audiograbber 1.83.01
#
DISCID=a109250b
DTITLE=Kerosene Brothers - Choose Your Own Title
DYEAR=2003
DGENRE=Bluegrass
TTITLE0=Ellie Schaffer
TTITLE1=If You Ain't Thinking About Me
TTITLE2=Doreen
TTITLE3=Shady Grove
TTITLE4=Mr. Wrong
TTITLE5=Katy Daly
TTITLE6=In The Pines
TTITLE7=Last Call
TTITLE8=Hellfire and Brimstone
TTITLE9=Farther Along
TTITLE10=I'm Gonna Lie
EXTD=
EXTT0=
EXTT1=
EXTT2=
EXTT3=
EXTT4=
EXTT5=
EXTT6=
EXTT7=
EXTT8=
EXTT9=
EXTT10=
PLAYORDER=
